<svg width="845" height="393" viewBox="0 0 845 393" fill="none" xmlns="http://www.w3.org/2000/svg">
<g filter="url(#filter0_d_1_10)">
<path fill-rule="evenodd" clip-rule="evenodd" d="M292.5 1.77264C291.259 4.73764 289.899 11.1976 288.974 18.5226C287.657 28.9536 284.733 40.5696 282.896 42.6686C280.465 45.4486 279.02 48.6176 279.003 51.2066C278.979 54.8546 273.759 70.7506 269.047 81.5226C268.085 83.7226 266.284 88.6726 265.045 92.5226C262.538 100.311 260.973 103.967 253.911 118.523C251.243 124.023 248.343 130.772 247.467 133.52C246.591 136.268 244.847 140.543 243.591 143.02C242.336 145.497 240.587 149.098 239.705 151.023C238.823 152.948 237.446 155.648 236.645 157.023C235.843 158.398 234.475 161.211 233.603 163.273C230.152 171.438 228.571 174.623 226.832 176.908C225.834 178.22 225.018 180.146 225.018 181.189C225.018 182.232 224.354 183.341 223.543 183.652C222.731 183.963 221.464 185.412 220.727 186.871C219.989 188.329 218.891 190.423 218.286 191.523C217.681 192.623 216.407 195.323 215.454 197.523C214.501 199.723 211.767 204.53 209.379 208.206C206.991 211.881 204.489 216.156 203.82 217.706C202.31 221.202 194.738 233.062 190.32 238.85C188.504 241.229 187.018 243.799 187.018 244.561C187.018 245.322 185.049 248.362 182.643 251.316C180.237 254.271 176.561 259.126 174.475 262.105C172.388 265.085 169.624 268.648 168.333 270.023C162.273 276.473 156.184 283.928 153.629 288.023C152.085 290.498 148.504 294.852 145.67 297.698C142.836 300.544 138.043 305.339 135.018 308.355C131.993 311.37 128.618 314.796 127.518 315.968C110.358 334.253 89.6299 351.544 78.3019 357.023C75.6709 358.296 72.8429 359.72 72.0179 360.187C71.1929 360.655 69.3929 361.579 68.0179 362.24C66.6429 362.902 64.0399 364.699 62.2329 366.233C60.4269 367.768 58.3409 369.023 57.5979 369.023C56.8549 369.023 54.0579 369.663 51.3829 370.444C41.9949 373.187 33.8029 374.07 30.0179 372.747C24.5089 370.821 19.4669 367.304 18.1869 364.496C17.1559 362.231 11.8389 359.023 9.11795 359.023C7.66695 359.023 3.87993 364.754 4.00293 366.764C4.06193 367.731 4.26193 370.098 4.44693 372.023C4.63093 373.948 4.83493 376.311 4.89993 377.273C4.98493 378.529 5.87395 379.023 8.05295 379.023C9.72295 379.023 12.1159 379.696 13.3719 380.519C17.2439 383.056 25.0899 384.431 35.0179 384.313C42.9079 384.219 45.9369 383.686 52.8959 381.166C57.5039 379.497 62.2289 377.299 63.3959 376.282C65.5969 374.363 67.9579 373.131 74.1679 370.66C76.1759 369.862 80.2959 367.254 83.3229 364.866C86.3499 362.477 92.079 358.048 96.054 355.023C100.029 351.998 104.641 347.844 106.302 345.792C107.963 343.74 110.266 341.775 111.42 341.426C112.574 341.076 117.276 337.13 121.868 332.657C149.814 305.434 164.877 289.181 172.035 278.523C173.882 275.773 177.507 271.048 180.091 268.023C182.675 264.998 185.693 260.723 186.797 258.523C187.902 256.323 189.753 253.666 190.912 252.618C192.07 251.57 193.018 250.318 193.018 249.836C193.018 249.353 194.977 245.935 197.372 242.241C199.766 238.546 203.456 232.598 205.571 229.023C207.686 225.448 210.059 221.75 210.843 220.805C212.216 219.152 216.425 211.471 221.136 202.023C222.37 199.548 224.678 195.598 226.265 193.246C227.853 190.894 230.099 186.619 231.257 183.746C232.415 180.873 233.914 177.848 234.588 177.023C235.262 176.198 236.915 173.273 238.26 170.523C239.605 167.773 241.425 164.173 242.303 162.523C244.982 157.491 248.018 150.124 248.018 148.656C248.018 147.893 248.693 146.708 249.518 146.023C250.343 145.338 251.018 144.344 251.018 143.813C251.018 143.282 253.25 138.275 255.977 132.685C260.568 123.277 262.891 117.827 266.699 107.531C267.511 105.335 268.66 102.955 269.252 102.241C269.845 101.527 270.68 98.7226 271.109 96.0106C271.538 93.2976 272.818 90.0806 273.953 88.8616C275.089 87.6426 276.018 85.3926 276.018 83.8616C276.018 81.2886 278.249 75.4976 283.085 65.5226C284.151 63.3226 285.022 61.1416 285.021 60.6766C285.019 60.2116 285.966 58.5006 287.124 56.8736C288.441 55.0246 289.052 52.9796 288.754 51.4196C288.273 48.9066 291.233 43.9126 292.472 45.1466C292.817 45.4896 293.286 50.6646 293.515 56.6466C294.042 70.3966 295.797 92.8556 296.423 93.8696C296.685 94.2936 296.968 97.5386 297.052 101.082C297.137 104.624 297.816 110.673 298.561 114.523C299.307 118.373 300.852 127.598 301.995 135.023C303.138 142.448 304.761 152.123 305.601 156.523C307.776 167.91 307.93 169.126 308.973 183.023C309.928 195.741 312.61 219.77 313.51 223.672C314.2 226.663 308.763 233.048 302.518 236.581C295.763 240.403 280.387 255.463 277.563 261.023C276.306 263.498 274.527 266.955 273.609 268.704C271.081 273.524 270.523 280.936 272.42 284.523C273.292 286.173 274.008 288.257 274.012 289.154C274.018 290.85 278.252 302.894 280.183 306.712C280.792 307.915 284.785 311.812 289.056 315.372C296.744 321.777 304.29 325.96 308.395 326.09C310.861 326.168 322.652 330.01 325.375 331.622C327.366 332.801 328.213 336.017 330.44 350.846C331.976 361.073 333.819 364.315 337.816 363.82C339.611 363.598 340.568 362.512 341.603 359.523C342.365 357.323 342.995 354.43 343.003 353.094C343.022 350.046 344.773 345.054 348.099 338.562C350.536 333.807 350.956 333.481 355.599 332.753C358.305 332.329 364.793 331.766 370.018 331.501C375.243 331.237 381.318 330.788 383.518 330.504C385.718 330.221 391.568 329.568 396.518 329.054C401.468 328.541 408.443 327.688 412.018 327.16C415.593 326.632 422.632 325.992 427.659 325.738C432.687 325.483 437.26 324.992 437.821 324.645C438.381 324.298 442.593 323.312 447.179 322.453C451.766 321.594 461.818 319.39 469.518 317.555C477.218 315.721 485.318 313.965 487.518 313.654C508.373 310.703 525.076 307.331 538.206 303.419C540.784 302.651 544.834 302.018 547.206 302.011C549.578 302.005 553.993 301.278 557.018 300.396C560.043 299.514 564.318 298.594 566.518 298.351C568.718 298.108 571.418 297.502 572.518 297.005C573.618 296.508 577.443 295.895 581.018 295.644C590.993 294.944 597.774 293.551 599.737 291.801C600.716 290.927 603.993 290.003 607.018 289.748C610.043 289.493 615.218 288.568 618.518 287.692C621.818 286.816 627.218 285.585 630.518 284.957C633.818 284.328 637.418 283.436 638.518 282.974C639.618 282.512 643.857 281.831 647.938 281.46C652.019 281.089 656.744 280.349 658.438 279.816C660.132 279.282 664.443 278.461 668.018 277.992C671.593 277.523 676.543 276.682 679.018 276.123C681.493 275.565 686.084 274.636 689.219 274.059C692.355 273.482 696.064 272.576 697.461 272.045C699.972 271.09 703.018 271.58 703.018 272.939C703.018 273.325 703.644 274.497 704.41 275.544C705.592 277.161 706.043 277.247 707.41 276.113C708.294 275.379 709.018 273.492 709.018 271.92C709.018 269.758 709.566 268.949 711.268 268.603C712.505 268.351 714.868 267.856 716.518 267.503C718.168 267.15 721.318 266.665 723.518 266.424C725.718 266.183 731.793 265.517 737.018 264.944C742.243 264.372 754.393 262.563 764.018 260.926C773.643 259.288 784.668 257.466 788.518 256.876C792.368 256.286 796.868 255.441 798.518 254.998C800.168 254.555 805.4 253.911 810.146 253.566C817.132 253.058 819.45 253.262 822.334 254.636C825.652 256.219 826.065 256.222 828.421 254.679C829.811 253.768 832.063 253.023 833.427 253.023C834.791 253.023 837.169 251.924 838.712 250.581C841.404 248.239 841.456 248.025 839.985 245.331C839.06 243.638 837.472 242.407 835.985 242.231C834.628 242.071 832.56 241.461 831.388 240.877C829.109 239.739 822.907 240.142 814.018 242.006C810.993 242.64 805.818 243.525 802.518 243.974C799.218 244.422 793.143 245.494 789.018 246.355C772.293 249.848 759.146 252.023 754.757 252.023C750.029 252.023 744.501 252.952 733.173 255.652C729.683 256.484 726.249 256.942 725.542 256.67C724.834 256.399 722.515 256.798 720.387 257.556C718.259 258.315 714.831 258.955 712.768 258.979L709.018 259.023V252.686C709.018 244.716 711.392 228.902 713.452 223.147C715.299 217.987 715.376 208.951 713.615 204.023C712.742 201.582 711.249 199.989 708.678 198.759C705.098 197.046 704.875 197.055 700.886 199.09C696.04 201.563 689.972 207.519 686.361 213.351C683.052 218.693 679.01 223.023 677.331 223.023C676.345 223.023 676.018 220.806 676.018 214.134C676.018 204.133 674.816 201.647 669.457 200.565C667.211 200.112 665.983 200.423 664.843 201.735C662.555 204.367 662.022 210.013 663.633 214.544C664.871 218.026 664.84 219.965 663.385 230.078C661.942 240.105 661.908 242.023 663.127 244.578C665.299 249.131 669.904 249.173 673.338 244.67C674.787 242.77 676.483 240.096 677.106 238.729C677.729 237.361 679.202 235.718 680.378 235.077C682.282 234.041 690.579 223.576 696.756 214.423C699.281 210.682 702.51 208.591 704.175 209.62C705.553 210.472 704.528 226.202 702.895 229.253C701.895 231.121 698.781 252.632 699.114 255.366C699.67 259.93 698.867 262.125 696.268 263.152C694.755 263.749 692.712 264.655 691.727 265.164C690.742 265.674 689.499 265.821 688.965 265.49C687.877 264.818 676.15 266.378 665.518 268.61C661.668 269.418 656.043 270.512 653.018 271.041C649.993 271.57 645.946 272.457 644.025 273.013C642.103 273.568 639.208 274.023 637.59 274.023C635.973 274.023 632.82 274.872 630.584 275.909C624.932 278.531 614.61 280.885 605.883 281.542C597.288 282.189 588.984 283.707 583.954 285.552C581.993 286.27 577.667 287.137 574.339 287.477C571.011 287.818 565.966 288.945 563.128 289.983C560.289 291.02 554.941 292.185 551.242 292.572C547.544 292.958 543.268 293.911 541.741 294.688C540.214 295.466 535.039 296.581 530.241 297.167C525.443 297.752 521.293 298.543 521.018 298.924C520.743 299.304 517.805 299.603 514.49 299.586C511.175 299.57 506.675 300.077 504.49 300.713C502.305 301.349 497.143 302.615 493.018 303.527C488.893 304.438 484.72 305.902 483.744 306.78C482.5 307.899 481.656 308.061 480.916 307.321C480.176 306.581 478.466 306.713 475.189 307.762C468.793 309.81 454.145 312.213 438.018 313.859C432.278 314.445 431.481 314.786 431.198 316.773C430.829 319.376 429.231 319.697 427.62 317.493C426.657 316.176 425.527 316.123 419.509 317.11C415.664 317.741 410.943 318.426 409.018 318.633C388.29 320.856 384.109 321.458 377.219 323.215C373.919 324.056 371.993 324.005 368.939 322.997C365.899 321.994 364.681 321.96 363.788 322.853C362.425 324.216 358.121 324.374 356.163 323.134C355.159 322.498 354.972 320.881 355.44 316.899C355.788 313.942 356.442 306.798 356.894 301.023C357.347 295.248 358.237 289.173 358.874 287.523C359.51 285.873 360.452 280.923 360.966 276.523C362.167 266.251 363.556 258.968 365.423 253.157C366.242 250.609 367.371 245.823 367.931 242.523C368.49 239.223 369.663 232.355 370.535 227.262C371.408 222.168 371.842 217.547 371.499 216.992C370.532 215.427 372.83 209.544 375.297 207.271C376.519 206.145 381.793 203.127 387.018 200.564C392.243 198 397.868 195.206 399.518 194.353C401.168 193.501 404.778 192.21 407.541 191.485C410.304 190.76 417.504 187.244 423.542 183.672C429.58 180.1 436.769 176.629 439.519 175.959C442.268 175.289 445.193 174.161 446.019 173.453C448.523 171.302 463.275 163.41 467.194 162.124C469.215 161.46 472.826 159.478 475.217 157.72C480.624 153.744 481.976 152.972 495.263 146.268C501.173 143.287 506.265 140.432 506.579 139.924C507.246 138.845 515.884 133.383 521.354 130.581C523.439 129.514 527.519 126.589 530.421 124.081C541.206 114.763 551.618 106.48 554.282 105.101C555.792 104.319 558.263 102.359 559.773 100.744C561.283 99.1286 565.978 94.3326 570.206 90.0856C574.747 85.5246 578.179 81.1676 578.59 79.4426C578.973 77.8366 579.869 75.8476 580.58 75.0226C585.452 69.3716 586.655 46.8876 582.532 38.5336C579.726 32.8476 568.539 22.0226 565.47 22.0226C564.842 22.0226 563.513 21.1226 562.518 20.0226C561.523 18.9226 560.079 18.0226 559.311 18.0226C558.543 18.0226 556.25 17.1656 554.216 16.1176C548.424 13.1336 541.423 11.7986 529.612 11.4276C518.195 11.0676 510.627 12.1616 507.985 14.5526C507.123 15.3326 504.447 16.6656 502.037 17.5156C499.627 18.3666 496.274 20.1076 494.587 21.3856C492.899 22.6626 488.593 25.1076 485.018 26.8186C481.443 28.5286 476.493 31.9856 474.018 34.5006C471.543 37.0146 468.35 39.7116 466.922 40.4936C463.144 42.5616 434.199 71.7696 431.239 76.5006C429.855 78.7126 426.14 83.4506 422.984 87.0286C419.569 90.8996 416.732 95.2466 415.979 97.7596C415.273 100.116 413.937 102.231 412.959 102.542C411.994 102.848 410.533 104.769 409.712 106.811C408.891 108.852 406.813 112.285 405.096 114.439C403.378 116.593 401.716 119.518 401.402 120.939C400.261 126.112 399.844 127.052 396.598 131.77C394.782 134.41 392.961 137.627 392.551 138.92C392.141 140.212 390.84 142.898 389.661 144.888C387.065 149.272 385.053 154.789 385.033 157.585C385.025 158.719 384.118 161.51 383.018 163.787C381.918 166.064 381.018 168.578 381.018 169.375C381.018 170.172 379.218 174.344 377.018 178.646C374.818 182.948 373.018 187.398 373.018 188.534C373.018 189.67 372.118 192.365 371.018 194.523C369.918 196.681 369.018 199.196 369.018 200.112C369.018 202.208 360.928 206.331 351.442 209.069C347.176 210.301 342.829 212.385 340.497 214.318C335.375 218.561 326.977 221.413 325.416 219.44C324.811 218.674 324.008 213.654 323.633 208.285C323.258 202.916 322.532 196.948 322.02 195.023C321.508 193.098 320.381 185.673 319.516 178.523C318.652 171.373 317.074 161.698 316.011 157.023C313.431 145.682 311.181 130.543 310.436 119.524C310.102 114.575 309.691 110.3 309.523 110.024C309.354 109.749 308.917 102.998 308.551 95.0226C308.184 87.0476 307.429 77.5976 306.871 74.0226C306.314 70.4476 305.66 62.4126 305.417 56.1666C305.174 49.9216 304.514 43.9506 303.951 42.8986C302.865 40.8686 302.172 31.7946 302.076 18.3436C302.037 12.8246 301.573 9.72063 300.65 8.79763C299.897 8.04463 298.942 6.32564 298.528 4.97564C297.012 0.0466413 293.912 -1.60136 292.5 1.77264ZM542.518 25.1026C546.368 25.7206 550.868 26.7206 552.518 27.3256C557.023 28.9766 568.456 37.5586 569.673 40.2026C573.645 48.8326 574.2 60.0996 571.018 67.5226C569.918 70.0886 569.018 73.0096 569.018 74.0136C569.018 75.0176 565.868 79.1026 562.018 83.0926C558.168 87.0826 555.018 90.9336 555.018 91.6506C555.018 93.5986 549.381 99.6416 545.198 102.176C543.174 103.403 539.268 106.251 536.518 108.505C533.768 110.759 529.043 114.255 526.018 116.273C517.887 121.698 511.872 125.997 508.723 128.631C507.187 129.917 504.037 131.866 501.723 132.964C499.41 134.061 493.243 137.667 488.018 140.977C482.793 144.287 477.443 147.465 476.129 148.037C474.815 148.61 472.418 150.192 470.802 151.551C469.186 152.911 467.398 154.023 466.828 154.023C466.258 154.023 461.801 156.273 456.922 159.023C452.044 161.773 447.546 164.023 446.927 164.023C446.308 164.023 442.578 166.179 438.638 168.814C434.699 171.449 428.785 174.676 425.497 175.985C422.208 177.294 418.393 179.136 417.018 180.079C415.643 181.022 412.043 182.466 409.018 183.289C405.993 184.112 398.894 186.909 393.242 189.504C384.89 193.34 382.689 193.995 381.492 193.001C379.563 191.4 379.631 190.49 381.928 187.233C382.979 185.742 384.137 182.35 384.502 179.693C384.866 177.037 387.157 170.459 389.591 165.075C392.026 159.692 394.018 154.623 394.018 153.811C394.018 152.998 395.142 151.027 396.517 149.429C397.891 147.83 399.018 145.848 399.021 145.023C399.023 144.198 399.924 142.05 401.022 140.249C402.12 138.448 403.018 136.371 403.018 135.634C403.018 134.896 403.995 133.05 405.19 131.532C408.748 127.008 416.734 113.292 417.435 110.5C417.793 109.072 419.783 106.019 421.857 103.714C423.931 101.409 427.177 97.0476 429.07 94.0226C430.962 90.9976 433.424 87.6226 434.54 86.5226C435.657 85.4226 440.961 79.4876 446.327 73.3336C451.693 67.1796 460.344 58.4996 465.551 54.0466C470.758 49.5926 475.018 45.5856 475.018 45.1426C475.018 44.6996 476.706 43.4796 478.768 42.4296C480.831 41.3806 485.178 38.5596 488.428 36.1596C496.829 29.9566 502.503 27.1556 509.989 25.5146C520.837 23.1366 529.583 23.0266 542.518 25.1026ZM367.018 211.933C367.018 212.434 365.668 215.696 364.019 219.183C362.369 222.67 361.019 226.514 361.019 227.724C361.018 228.935 360.296 232.535 359.413 235.724C357.425 242.903 356.417 247.876 354.485 260.023C353.654 265.248 352.572 270.648 352.08 272.023C350.923 275.261 350.047 279.86 348.937 288.523C347.639 298.657 346.988 302.267 346.051 304.523C345.594 305.623 344.225 309.673 343.008 313.523C340.487 321.499 339.534 322.939 337.871 321.276C336.005 319.41 333.176 304.321 331.072 285.023C330.563 280.348 329.893 275.173 329.584 273.523C329.275 271.873 328.84 268.048 328.616 265.023C328.393 261.998 327.676 253.304 327.023 245.703C325.928 232.962 325.972 231.732 327.582 229.953C328.542 228.891 329.658 228.023 330.062 228.023C330.466 228.023 333.876 226.223 337.641 224.023C341.406 221.823 345.193 220.023 346.056 220.023C346.92 220.023 349.852 218.595 352.572 216.849C359.741 212.249 367.018 209.772 367.018 211.933ZM622.441 214.318C618.507 216.446 612.746 222.306 610.371 226.595C602.076 241.575 598.946 251.223 599.066 261.44C599.159 269.327 604.571 275.771 611.252 275.95C614.86 276.046 623.565 271.72 633.874 264.707C638.47 261.581 642.588 259.023 643.025 259.023C643.463 259.023 644.75 257.448 645.885 255.523C647.021 253.598 648.442 252.023 649.043 252.023C649.644 252.023 649.864 251.582 649.531 251.043C649.164 250.451 648.252 250.412 647.222 250.946C646.285 251.431 643.493 252.408 641.018 253.116C638.543 253.824 634.91 255.643 632.945 257.157C630.98 258.672 627.605 260.555 625.445 261.342C623.285 262.13 619.343 263.616 616.685 264.645C611.934 266.484 611.827 266.483 610.435 264.578C606.947 259.809 609.936 250.85 615.883 248.249C625.2 244.174 637.018 229.193 637.018 221.457C637.018 217.932 636.489 216.756 633.941 214.612C630.222 211.482 627.8 211.42 622.441 214.318ZM569.525 218.465C565.041 222.701 563.033 225.578 559.587 232.705C558.741 234.455 557.646 236.135 557.153 236.439C554.709 237.95 550.37 259.32 551.32 265.162C552.782 274.148 554.228 278.502 556.756 281.536C558.275 283.358 560.125 285.117 560.867 285.443C562.038 285.958 569.097 284.064 578.241 280.781C579.738 280.243 581.988 278.793 583.241 277.559C589.53 271.361 593.246 266.917 592.643 266.315C592.275 265.947 589.621 266.673 586.746 267.929C583.87 269.185 580.064 270.571 578.286 271.008C576.508 271.446 573.445 272.754 571.479 273.914C567.886 276.034 561.018 276.817 561.018 275.106C561.018 274.602 561.533 274.018 562.161 273.809C563.019 273.523 563.019 272.894 562.161 271.291C561.533 270.116 561.018 266.409 561.018 263.054C561.018 256.378 563.005 252.023 566.051 252.023C569.458 252.023 570.983 250.809 578.085 242.444C584.77 234.569 585.235 233.707 585.71 228.291C586.172 223.019 585.948 222.157 583.111 218.273C578.867 212.465 575.832 212.508 569.525 218.465ZM530.045 226.231C528.179 227.492 525.344 230.773 523.746 233.523C522.149 236.273 519.531 239.894 517.93 241.571C516.328 243.247 515.018 245.071 515.018 245.624C515.018 246.178 513.412 248.181 511.448 250.077C508.637 252.791 507.965 254.126 508.288 256.359C508.618 258.649 508.22 259.376 506.219 260.137C504.856 260.655 503.631 260.954 503.498 260.801C502.333 259.47 501.343 248.904 501.738 242.023C502.176 234.385 502.005 233.244 500.049 230.773C497.067 227.005 491.849 226.903 490.174 230.58C489.29 232.521 489.288 233.66 490.168 235.303C490.9 236.671 491.274 242.242 491.183 250.427C490.999 266.956 491.895 270.527 496.733 272.548C500.006 273.916 500.849 273.908 505.193 272.465C507.856 271.58 510.018 270.244 510.018 269.482C510.018 268.722 511.971 265.703 514.358 262.772C518.618 257.542 527.009 245.249 530.001 239.855C530.835 238.351 533.003 235.017 534.818 232.448C536.632 229.878 537.978 227.044 537.807 226.149C537.332 223.653 533.807 223.69 530.045 226.231ZM465.663 233.489C461.342 236.422 458.415 236.692 455.876 234.394C453.944 232.646 454.562 232.553 440.417 236.724C433.884 238.65 431.018 240.449 431.018 242.622C431.018 243.367 429.781 244.736 428.268 245.664C423.684 248.477 417.212 255.903 415.927 259.825C415.26 261.859 414.047 264.55 413.231 265.804C411.285 268.797 408.096 282.36 408.052 287.83C407.996 294.902 409.871 300.287 413.916 304.667C417.212 308.237 418.412 308.842 423.449 309.471C428.401 310.09 429.513 309.914 431.364 308.222C432.549 307.139 434.477 305.963 435.65 305.608C438.082 304.872 449.126 294.363 456.661 285.614C462.176 279.211 464.515 278.713 465.515 283.73C466.549 288.925 470.591 295.503 472.965 295.855C475.181 296.183 475.195 296.106 474.361 288.355C473.2 277.566 473.764 259.873 475.433 254.762C478.107 246.573 478.303 241.456 476.132 236.547C475.031 234.059 473.692 232.023 473.156 232.023C472.62 232.023 471.555 231.783 470.79 231.489C470.024 231.195 467.717 232.095 465.663 233.489ZM619.018 237.023C619.018 237.573 618.568 238.023 618.018 238.023C617.468 238.023 617.018 237.573 617.018 237.023C617.018 236.473 617.468 236.023 618.018 236.023C618.568 236.023 619.018 236.473 619.018 237.023ZM316.142 240.773C317.537 244.342 318.912 255.087 319.078 263.708C319.21 270.565 322.144 297.64 324.477 313.523C324.966 316.856 324.652 317.981 322.589 320.273C319.979 323.172 318.853 323.738 319.268 321.941C319.406 321.346 317.705 320.108 315.488 319.191C313.272 318.274 310.359 316.735 309.016 315.773C307.672 314.811 305.993 314.023 305.285 314.023C302.342 314.023 295.219 309.757 293.946 307.232C293.195 305.742 290.653 302.405 288.299 299.816C285.944 297.227 284.018 294.389 284.018 293.508C284.018 292.628 282.893 289.893 281.518 287.43C277.068 279.459 278.816 271.851 287.525 261.293C290.546 257.63 293.018 254.291 293.018 253.871C293.018 252.241 312.09 238.037 314.293 238.027C314.719 238.025 315.551 239.261 316.142 240.773ZM463.3 250.273C463.546 250.961 463.311 252.37 462.776 253.406C462.242 254.442 462.089 257.065 462.436 259.235C463.001 262.772 462.576 263.924 458.325 270.352C451.882 280.095 436.282 295.375 430.538 297.569C418.996 301.976 415.421 292.54 424.226 280.91C426.469 277.947 429.135 273.67 430.15 271.405C432.249 266.72 433.455 265.552 437.085 264.688C438.547 264.34 440.21 262.882 440.95 261.3C441.665 259.773 442.581 257.848 442.987 257.023C443.461 256.057 445.507 255.417 448.729 255.226C452.749 254.987 454.291 254.347 456.563 251.976C459.515 248.895 462.532 248.133 463.3 250.273Z" fill="white"/>
</g>
<defs>
<filter id="filter0_d_1_10" x="0" y="0" width="844.95" height="392.32" filterUnits="userSpaceOnUse" color-interpolation-filters="sRGB">
<feFlood flood-opacity="0" result="BackgroundImageFix"/>
<feColorMatrix in="SourceAlpha" type="matrix" values="0 0 0 0 0 0 0 0 0 0 0 0 0 0 0 0 0 0 127 0" result="hardAlpha"/>
<feOffset dy="4"/>
<feGaussianBlur stdDeviation="2"/>
<feComposite in2="hardAlpha" operator="out"/>
<feColorMatrix type="matrix" values="0 0 0 0 0 0 0 0 0 0 0 0 0 0 0 0 0 0 0.25 0"/>
<feBlend mode="normal" in2="BackgroundImageFix" result="effect1_dropShadow_1_10"/>
<feBlend mode="normal" in="SourceGraphic" in2="effect1_dropShadow_1_10" result="shape"/>
</filter>
</defs>
</svg>
